<?xml version="1.0" standalone="no"?><!DOCTYPE svg PUBLIC "-//W3C//DTD SVG 1.1//EN" "http://www.w3.org/Graphics/SVG/1.1/DTD/svg11.dtd"><svg t="1753081846830" class="icon" viewBox="0 0 1024 1024" version="1.1" xmlns="http://www.w3.org/2000/svg" p-id="5775" xmlns:xlink="http://www.w3.org/1999/xlink" width="200" height="200"><path d="M979.47584407 983.89414365l-458.49114544-207.51198167c-4.88728112-2.22149142-10.49037613-2.22149142-15.37765726 0l-458.51582872 207.51198167c-16.11815439 7.30623842-32.38440825-9.87329518-24.21425643-25.57183453l473.8688027-910.2190837c6.96067308-13.37831499 26.09018254-13.37831499 33.05085568 0L1003.69010053 958.32230912c8.17015181 15.69853937-8.09610205 32.87807299-24.21425646 25.57183453z" fill="#e6e6e6" p-id="5776" data-spm-anchor-id="a313x.search_index.0.i4.66823a81DVOBQo" class=""></path><path d="M513.28352839 660.00069492c-23.64654201 0-42.82541791-19.1788759-42.82541792-42.8254179v-210.62206968c0-23.64654201 19.1788759-42.82541791 42.82541792-42.82541788s42.82541791 19.1788759 42.82541787 42.82541788v210.62206968c0.02468324 23.64654201-19.1788759 42.82541791-42.82541787 42.8254179z" fill="#ffffff" p-id="5777" data-spm-anchor-id="a313x.search_index.0.i3.66823a81DVOBQo" class="selected"></path></svg>